<svg xmlns="http://www.w3.org/2000/svg" viewBox="0 0 450 350" width="450" height="350" preserveAspectRatio="xMidYMid meet" style="width: 100%; height: 100%; transform: translate3d(0px, 0px, 0px);"><defs><clipPath id="__lottie_element_115"><rect width="450" height="350" x="0" y="0"></rect></clipPath></defs><g clip-path="url(#__lottie_element_115)"><g transform="matrix(1,0,0,1,184.06500244140625,139.96299743652344)" opacity="1" style="display: block;"><g opacity="1" transform="matrix(1,0,0,1,187.552001953125,98.58599853515625)"><path fill="rgb(34,30,31)" fill-opacity="1" d=" M-14.199999809265137,-21.299999237060547 C-14.199999809265137,-21.299999237060547 16.781999588012695,11.618000030517578 16.781999588012695,11.618000030517578 C16.781999588012695,11.618000030517578 -16.781999588012695,21.299999237060547 -16.781999588012695,21.299999237060547 C-16.781999588012695,21.299999237060547 -14.199999809265137,-21.299999237060547 -14.199999809265137,-21.299999237060547z"></path></g><g opacity="1" transform="matrix(1,0,0,1,99.78500366210938,74.69599914550781)"><path fill="rgb(130,126,126)" fill-opacity="1" d=" M70.15799713134766,68.79900360107422 C70.15799713134766,68.79900360107422 -93.88800048828125,18.211999893188477 -93.88800048828125,18.211999893188477 C-93.88800048828125,18.211999893188477 -77.24700164794922,-68.79900360107422 -77.24700164794922,-68.79900360107422 C-77.24700164794922,-68.79900360107422 93.88800048828125,-55.2859992980957 93.88800048828125,-55.2859992980957 C93.88800048828125,-55.2859992980957 70.15799713134766,68.79900360107422 70.15799713134766,68.79900360107422z"></path></g><g opacity="1" transform="matrix(1,0,0,1,97.29900360107422,72.44499969482422)"><path fill="rgb(117,204,156)" fill-opacity="1" d=" M80.26599884033203,-43.29399871826172 C80.26599884033203,-43.29399871826172 61.26599884033203,56.05699920654297 61.26599884033203,56.05699920654297 C61.26599884033203,56.05699920654297 54.0629997253418,53.88199996948242 54.0629997253418,53.88199996948242 C54.0629997253418,53.88199996948242 52.03099822998047,53.27799987792969 52.03099822998047,53.27799987792969 C52.03099822998047,53.27799987792969 43.64400100708008,50.76300048828125 43.64400100708008,50.76300048828125 C43.64400100708008,50.76300048828125 43.0880012512207,50.61800003051758 43.0880012512207,50.61800003051758 C43.0880012512207,50.61800003051758 -70.3550033569336,16.55900001525879 -70.3550033569336,16.55900001525879 C-70.3550033569336,16.55900001525879 -74.12699890136719,15.42300033569336 -74.12699890136719,15.42300033569336 C-74.12699890136719,15.42300033569336 -80.26599884033203,13.586000442504883 -80.26599884033203,13.586000442504883 C-80.26599884033203,13.586000442504883 -66.9469985961914,-56.05699920654297 -66.9469985961914,-56.05699920654297 C-66.9469985961914,-56.05699920654297 80.26599884033203,-43.29399871826172 80.26599884033203,-43.29399871826172z"></path></g><g opacity="1" transform="matrix(1,0,0,1,87.91999816894531,74.69599914550781)"><path stroke-linecap="round" stroke-linejoin="miter" fill-opacity="0" stroke-miterlimit="10" stroke="rgb(40,41,98)" stroke-opacity="1" stroke-width="2.359" d=" M-65.38300323486328,-68.79900360107422 C-65.38300323486328,-68.79900360107422 -82.02300262451172,18.211999893188477 -82.02300262451172,18.211999893188477 C-82.02300262451172,18.211999893188477 82.02300262451172,68.79900360107422 82.02300262451172,68.79900360107422"></path></g></g><g transform="matrix(1,0,0,1,206.98800659179688,196.83099365234375)" opacity="1" style="display: block;"><g opacity="1" transform="matrix(1,0,0,1,64.34400177001953,34.854000091552734)"><path fill="rgb(38,34,98)" fill-opacity="1" d=" M64.09400177001953,34.604000091552734 C64.09400177001953,34.604000091552734 62.06399917602539,34 62.06399917602539,34 C62.06399917602539,34 53.67499923706055,31.486000061035156 53.67499923706055,31.486000061035156 C53.67499923706055,31.486000061035156 53.119998931884766,31.34000015258789 53.119998931884766,31.34000015258789 C53.119998931884766,31.34000015258789 -60.323001861572266,-2.7190001010894775 -60.323001861572266,-2.7190001010894775 C-60.323001861572266,-2.7190001010894775 -64.09400177001953,-3.8550000190734863 -64.09400177001953,-3.8550000190734863 C-63.99800109863281,-4.724999904632568 -63.85300064086914,-5.620999813079834 -63.6349983215332,-6.491000175476074 C-58.874000549316406,-25.708999633789062 -28.02899932861328,-34.604000091552734 5.281000137329102,-26.336999893188477 C37.262001037597656,-18.433000564575195 58.82500076293945,9.82699966430664 64.09400177001953,34.604000091552734z"></path></g></g><g transform="matrix(1,0,0,1,266.2430114746094,190.40199279785156)" opacity="1" style="display: block;"><g opacity="1" transform="matrix(1,0,0,1,9.22599983215332,10.807000160217285)"><path fill="rgb(119,71,55)" fill-opacity="1" d=" M-2.0829999446868896,9.781000137329102 C-2.0829999446868896,9.781000137329102 -2.0829999446868896,9.781000137329102 -2.0829999446868896,9.781000137329102 C-6.23799991607666,9.005000114440918 -8.97599983215332,5.007999897003174 -8.199999809265137,0.8529999852180481 C-8.199999809265137,0.8529999852180481 -6.068999767303467,-10.557000160217285 -6.068999767303467,-10.557000160217285 C-6.068999767303467,-10.557000160217285 8.97599983215332,-7.747000217437744 8.97599983215332,-7.747000217437744 C8.97599983215332,-7.747000217437744 6.84499979019165,3.6640000343322754 6.84499979019165,3.6640000343322754 C6.068999767303467,7.817999839782715 2.072000026702881,10.557000160217285 -2.0829999446868896,9.781000137329102z"></path></g></g><g transform="matrix(0.9966567754745483,-0.08170211315155029,0.08170211315155029,0.9966567754745483,242.4940185546875,130.02198791503906)" opacity="1" style="display: block;"><g opacity="1" transform="matrix(1,0,0,1,68.96800231933594,18.958999633789062)"><path fill="rgb(34,30,31)" fill-opacity="1" d=" M16.52400016784668,3.1600000858306885 C14.779000282287598,12.28600025177002 5.966000080108643,18.268999099731445 -3.1600000858306885,16.523000717163086 C-12.28499984741211,14.777999877929688 -18.268999099731445,5.965000152587891 -16.523000717163086,-3.1610000133514404 C-14.777999877929688,-12.286999702453613 -5.965000152587891,-18.268999099731445 3.1610000133514404,-16.524999618530273 C12.28600025177002,-14.779999732971191 18.268999099731445,-5.966000080108643 16.52400016784668,3.1600000858306885z"></path></g><g opacity="1" transform="matrix(1,0,0,1,34.345001220703125,39.650001525878906)"><path fill="rgb(158,100,84)" fill-opacity="1" d=" M-6.39300012588501,33.428001403808594 C-6.39300012588501,33.428001403808594 -6.39300012588501,33.428001403808594 -6.39300012588501,33.428001403808594 C-20.340999603271484,30.76099967956543 -29.570999145507812,17.166000366210938 -26.902999877929688,3.2190001010894775 C-26.902999877929688,3.2190001010894775 -23.81800079345703,-12.916999816894531 -23.81800079345703,-12.916999816894531 C-21.150999069213867,-26.864999771118164 -7.554999828338623,-36.095001220703125 6.39300012588501,-33.428001403808594 C20.340999603271484,-30.760000228881836 29.570999145507812,-17.166000366210938 26.902999877929688,-3.2170000076293945 C26.902999877929688,-3.2170000076293945 23.816999435424805,12.916999816894531 23.816999435424805,12.916999816894531 C21.149999618530273,26.864999771118164 7.554999828338623,36.095001220703125 -6.39300012588501,33.428001403808594z"></path></g><g opacity="1" transform="matrix(1,0,0,1,10.468999862670898,45.154998779296875)"><path fill="rgb(158,100,84)" fill-opacity="1" d=" M9.243000030517578,1.7680000066757202 C8.267000198364258,6.873000144958496 3.3369998931884766,10.218999862670898 -1.7680000066757202,9.243000030517578 C-6.872000217437744,8.265999794006348 -10.218999862670898,3.3359999656677246 -9.243000030517578,-1.7680000066757202 C-8.267000198364258,-6.873000144958496 -3.3369998931884766,-10.218999862670898 1.7669999599456787,-9.243000030517578 C6.872000217437744,-8.267000198364258 10.218999862670898,-3.3369998931884766 9.243000030517578,1.7680000066757202z"></path></g><g opacity="1" transform="matrix(1,0,0,1,59.92300033569336,54.612998962402344)"><path fill="rgb(158,100,84)" fill-opacity="1" d=" M9.243000030517578,1.7680000066757202 C8.267000198364258,6.873000144958496 3.3369998931884766,10.218999862670898 -1.7680000066757202,9.243000030517578 C-6.872000217437744,8.265999794006348 -10.218999862670898,3.3359999656677246 -9.243000030517578,-1.7680000066757202 C-8.267000198364258,-6.873000144958496 -3.3369998931884766,-10.218999862670898 1.7669999599456787,-9.243000030517578 C6.872000217437744,-8.267000198364258 10.218999862670898,-3.3369998931884766 9.243000030517578,1.7680000066757202z"></path></g><g opacity="1" transform="matrix(1,0,0,1,27.43199920654297,48.15800094604492)"><path fill="rgb(119,71,55)" fill-opacity="1" d=" M0.8489999771118164,2.0999999046325684 C0.8489999771118164,2.0999999046325684 -1.5640000104904175,1.6380000114440918 -1.5640000104904175,1.6380000114440918 C-2.562999963760376,1.4470000267028809 -3.2179999351501465,0.4819999933242798 -3.0269999504089355,-0.5170000195503235 C-3.0269999504089355,-0.5170000195503235 -3.003999948501587,-0.6359999775886536 -3.003999948501587,-0.6359999775886536 C-2.812999963760376,-1.6349999904632568 -1.8480000495910645,-2.2909998893737793 -0.8489999771118164,-2.0999999046325684 C-0.8489999771118164,-2.0999999046325684 1.5640000104904175,-1.6380000114440918 1.5640000104904175,-1.6380000114440918 C2.562999963760376,-1.4470000267028809 3.2179999351501465,-0.4819999933242798 3.0269999504089355,0.5170000195503235 C3.0269999504089355,0.5170000195503235 3.003999948501587,0.6370000243186951 3.003999948501587,0.6370000243186951 C2.812999963760376,1.6360000371932983 1.8480000495910645,2.2909998893737793 0.8489999771118164,2.0999999046325684z"></path></g><g opacity="1" transform="matrix(1,0,0,1,36.59400177001953,27.177000045776367)"><path fill="rgb(34,30,31)" fill-opacity="1" d=" M-28.542999267578125,13.501999855041504 C-28.542999267578125,13.501999855041504 -26.659000396728516,3.6480000019073486 -26.659000396728516,3.6480000019073486 C-24.01099967956543,-10.197999954223633 -10.513999938964844,-19.361000061035156 3.3340001106262207,-16.71299934387207 C17.180999755859375,-14.0649995803833 26.3439998626709,-0.5680000185966492 23.69499969482422,13.279000282287598 C23.69499969482422,13.279000282287598 21.81100082397461,23.131000518798828 21.81100082397461,23.131000518798828 C21.56100082397461,24.440000534057617 21.21299934387207,25.70800018310547 20.777999877929688,26.927000045776367 C24.725000381469727,22.841999053955078 27.56999969482422,17.601999282836914 28.716999053955078,11.605999946594238 C31.854999542236328,-4.802999973297119 21.09600067138672,-20.650999069213867 4.686999797821045,-23.788999557495117 C-11.722999572753906,-26.927000045776367 -27.570999145507812,-16.16699981689453 -30.708999633789062,0.24199999868869781 C-31.854999542236328,6.23799991607666 -31.145000457763672,12.157999992370605 -28.982999801635742,17.40999984741211 C-28.937999725341797,16.115999221801758 -28.79400062561035,14.810999870300293 -28.542999267578125,13.501999855041504z"></path></g><g opacity="1" transform="matrix(1,0,0,1,26.354000091552734,56.255001068115234)"><path fill="rgb(255,255,255)" fill-opacity="1" d=" M-9.260000228881836,-6.245999813079834 C-9.505714416503906,-4.544039249420166 -4.938837051391602,-1.8331420421600342 0.2771628499031067,-0.7071419954299927 C5.4941630363464355,0.41885799169540405 9.307821273803711,0.33658367395401 10.142000198364258,-2.058000087738037 C10.142000198364258,-2.058000087738037 -9.260000228881836,-6.245999813079834 -9.260000228881836,-6.245999813079834z"></path></g><g opacity="1" transform="matrix(1,0,0,1,41.584999084472656,25.94700050354004)"><path fill="rgb(34,30,31)" fill-opacity="1" d=" M-28.886999130249023,-12.442000389099121 C-28.886999130249023,-12.442000389099121 -15.553999900817871,11.680999755859375 12.902000427246094,15.904000282287598 C28.88800048828125,18.275999069213867 21.20199966430664,-1.4789999723434448 21.20199966430664,-1.4789999723434448 C21.20199966430664,-1.4789999723434448 4.0929999351501465,-18.275999069213867 4.0929999351501465,-18.275999069213867 C4.0929999351501465,-18.275999069213867 -28.886999130249023,-12.442000389099121 -28.886999130249023,-12.442000389099121z"></path></g></g><g transform="matrix(0.9966567754745483,-0.08170211315155029,0.08170211315155029,0.9966567754745483,282.0323791503906,169.2888946533203)" opacity="1" style="display: block;"><g opacity="1" transform="matrix(1,0,0,1,3.193000078201294,3.191999912261963)"><path fill="rgb(34,30,31)" fill-opacity="1" d=" M2.6619999408721924,0.5099999904632568 C2.380000114440918,1.9800000190734863 0.9620000123977661,2.943000078201294 -0.5080000162124634,2.6630001068115234 C-1.9780000448226929,2.38100004196167 -2.943000078201294,0.9610000252723694 -2.6610000133514404,-0.5090000033378601 C-2.380000114440918,-1.9789999723434448 -0.9610000252723694,-2.943000078201294 0.5090000033378601,-2.6610000133514404 C1.9789999723434448,-2.38100004196167 2.943000078201294,-0.9599999785423279 2.6619999408721924,0.5099999904632568z"></path></g></g><g transform="matrix(0.9966567754745483,-0.08170211315155029,0.08170211315155029,0.9966567754745483,259.62481689453125,166.85751342773438)" opacity="1" style="display: block;"><g opacity="1" transform="matrix(1,0,0,1,3.193000078201294,3.191999912261963)"><path fill="rgb(34,30,31)" fill-opacity="1" d=" M2.6619999408721924,0.5099999904632568 C2.380000114440918,1.9800000190734863 0.9620000123977661,2.943000078201294 -0.5080000162124634,2.6630001068115234 C-1.9780000448226929,2.38100004196167 -2.943000078201294,0.9610000252723694 -2.6610000133514404,-0.5090000033378601 C-2.380000114440918,-1.9789999723434448 -0.9610000252723694,-2.943000078201294 0.5090000033378601,-2.6610000133514404 C1.9789999723434448,-2.38100004196167 2.943000078201294,-0.9599999785423279 2.6619999408721924,0.5099999904632568z"></path></g></g><g transform="matrix(0.5234800577163696,0,0,0.5234800577163696,323.2120361328125,96.86410522460938)" opacity="1" style="display: block;"><g opacity="1" transform="matrix(1,0,0,1,18.511999130249023,17.663999557495117)"><path fill="rgb(59,150,92)" fill-opacity="1" d=" M-16.499000549316406,16.94300079345703 C-16.499000549316406,16.94300079345703 17.618000030517578,-2.0239999294281006 17.618000030517578,-2.0239999294281006 C18.1560001373291,-2.322999954223633 18.261999130249023,-3.052999973297119 17.83099937438965,-3.493000030517578 C17.83099937438965,-3.493000030517578 4.599999904632568,-16.988000869750977 4.599999904632568,-16.988000869750977 C4.181000232696533,-17.415000915527344 3.4739999771118164,-17.343000411987305 3.1489999294281006,-16.839000701904297 C3.1489999294281006,-16.839000701904297 -17.73699951171875,15.621999740600586 -17.73699951171875,15.621999740600586 C-18.261999130249023,16.437999725341797 -17.347000122070312,17.415000915527344 -16.499000549316406,16.94300079345703z"></path></g></g><g transform="matrix(0.5234800577163696,0,0,0.5234800577163696,296.0660705566406,90.90801239013672)" opacity="1" style="display: block;"><g opacity="1" transform="matrix(1,0,0,1,11.300000190734863,20.493999481201172)"><path fill="rgb(59,150,92)" fill-opacity="1" d=" M-5.189000129699707,19.37700080871582 C-5.189000129699707,19.37700080871582 10.793000221252441,-15.994000434875488 10.793000221252441,-15.994000434875488 C11.048999786376953,-16.55900001525879 10.690999984741211,-17.21299934387207 10.076000213623047,-17.301000595092773 C10.076000213623047,-17.301000595092773 -9.925999641418457,-20.159000396728516 -9.925999641418457,-20.159000396728516 C-10.527999877929688,-20.243999481201172 -11.050000190734863,-19.742000579833984 -10.986000061035156,-19.136999130249023 C-10.986000061035156,-19.136999130249023 -6.9670000076293945,19.09000015258789 -6.9670000076293945,19.09000015258789 C-6.866000175476074,20.03700065612793 -5.580999851226807,20.243999481201172 -5.189000129699707,19.37700080871582z"></path></g></g><g transform="matrix(0.5234800577163696,0,0,0.5234800577163696,261.8074645996094,93.95661926269531)" opacity="1" style="display: block;"><g opacity="1" transform="matrix(1,0,0,1,12.8100004196167,19.60300064086914)"><path fill="rgb(59,150,92)" fill-opacity="1" d=" M12.399999618530273,17.861000061035156 C12.399999618530273,17.861000061035156 6.310999870300293,-18.41200065612793 6.310999870300293,-18.41200065612793 C6.210000038146973,-19.006000518798828 5.581999778747559,-19.35300064086914 5.026000022888184,-19.118000030517578 C5.026000022888184,-19.118000030517578 -11.8100004196167,-11.994999885559082 -11.8100004196167,-11.994999885559082 C-12.376999855041504,-11.755000114440918 -12.5600004196167,-11.043000221252441 -12.180000305175781,-10.559000015258789 C-12.180000305175781,-10.559000015258789 10.746000289916992,18.591999053955078 10.746000289916992,18.591999053955078 C11.343000411987305,19.351999282836914 12.5600004196167,18.81399917602539 12.399999618530273,17.861000061035156z"></path></g></g><g transform="matrix(1,0,0,1,82.56100463867188,153.16799926757812)" opacity="1" style="display: block;"><g opacity="1" transform="matrix(1,0,0,1,28.68899917602539,17.41200065612793)"><path fill="rgb(204,142,109)" fill-opacity="1" d=" M28.43899917602539,-15.690999984741211 C28.43899917602539,-15.690999984741211 12.74899959564209,17.160999298095703 12.74899959564209,17.160999298095703 C12.74899959564209,17.160999298095703 -28.43899917602539,12.748000144958496 -28.43899917602539,12.748000144958496 C-28.43899917602539,12.748000144958496 -3.9230000972747803,-17.160999298095703 -3.9230000972747803,-17.160999298095703 C-3.9230000972747803,-17.160999298095703 28.43899917602539,-15.690999984741211 28.43899917602539,-15.690999984741211z"></path></g></g><g transform="matrix(1,0,0,1,17.712997436523438,166.447998046875)" opacity="1" style="display: block;"><g opacity="1" transform="matrix(1,0,0,1,105.91600036621094,72.0530014038086)"><path fill="rgb(59,150,92)" fill-opacity="1" d=" M-4.363999843597412,71.8030014038086 C-4.363999843597412,71.8030014038086 -100.01899719238281,71.8030014038086 -100.01899719238281,71.8030014038086 C-100.01899719238281,71.8030014038086 -87.56900024414062,-71.80400085449219 -12.954000473022461,-65.65499877929688 C100.01799774169922,-56.34299850463867 -4.363999843597412,71.8030014038086 -4.363999843597412,71.8030014038086z"></path></g><g opacity="1" transform="matrix(1,0,0,1,38.832000732421875,76.28099822998047)"><path stroke-linecap="round" stroke-linejoin="miter" fill-opacity="0" stroke-miterlimit="10" stroke="rgb(40,41,98)" stroke-opacity="1" stroke-width="2.359" d=" M32.935001373291016,-67.57499694824219 C32.935001373291016,-67.57499694824219 -17.665000915527344,-58.986000061035156 -32.935001373291016,67.57499694824219"></path></g></g><g transform="matrix(0.966154932975769,0.25796249508857727,-0.25796249508857727,0.966154932975769,119.19929504394531,171.48904418945312)" opacity="1" style="display: block;"><g opacity="1" transform="matrix(1,0,0,1,80.02100372314453,77.28900146484375)"><path fill="rgb(249,194,157)" fill-opacity="1" d=" M67.03099822998047,47.71699905395508 C59.441001892089844,52.91400146484375 51.92399978637695,56.56399917602539 44.28499984741211,59.875999450683594 C28.983999252319336,66.30599975585938 13.270999908447266,70.9229965209961 -3.069999933242798,73.94499969482422 C-3.069999933242798,73.94499969482422 -6.138999938964844,74.47599792480469 -6.138999938964844,74.47599792480469 C-18.322999954223633,77.03900146484375 -31.448999404907227,70.75299835205078 -37.540000915527344,59.92399978637695 C-38.676998138427734,58.33000183105469 -51.391998291015625,25.018999099731445 -61.56800079345703,-1.6929999589920044 C-67.9739990234375,-18.540000915527344 -73.38999938964844,-32.75400161743164 -74.23500061035156,-34.736000061035156 C-79.77100372314453,-49.11899948120117 -72.59100341796875,-65.24199676513672 -58.20800018310547,-70.77799987792969 C-42.349998474121094,-77.03900146484375 -24.19700050354004,-67.05500030517578 -20.885000228881836,-50.375999450683594 C-20.885000228881836,-50.375999450683594 -13.753999710083008,-15.857000350952148 -13.753999710083008,-15.857000350952148 C-13.753999710083008,-15.857000350952148 -2.8289999961853027,37.05699920654297 -2.8289999961853027,37.05699920654297 C9.814000129699707,36.57400131225586 22.527999877929688,34.88100051879883 34.7599983215332,31.95599937438965 C41.74599838256836,30.215999603271484 48.513999938964844,28.113000869750977 54.29199981689453,25.381999969482422 C68.7239990234375,19.048999786376953 79.7699966430664,38.60300064086914 67.03099822998047,47.71699905395508z"></path></g><g opacity="1" transform="matrix(1,0,0,1,33.257999420166016,37.92399978637695)"><path fill="rgb(117,204,156)" fill-opacity="1" d=" M33.007999420166016,23.507999420166016 C33.007999420166016,23.507999420166016 -14.805999755859375,37.67399978637695 -14.805999755859375,37.67399978637695 C-21.211999893188477,20.825000762939453 -26.625999450683594,6.611000061035156 -27.472000122070312,4.629000186920166 C-33.007999420166016,-9.753999710083008 -25.827999114990234,-25.87700080871582 -11.446000099182129,-31.413000106811523 C4.4120001792907715,-37.67399978637695 22.565000534057617,-27.690000534057617 25.87700080871582,-11.01099967956543 C25.87700080871582,-11.01099967956543 33.007999420166016,23.507999420166016 33.007999420166016,23.507999420166016z"></path></g><g opacity="1" transform="matrix(1,0,0,1,22.81599998474121,88.22699737548828)"><path stroke-linecap="round" stroke-linejoin="miter" fill-opacity="0" stroke-miterlimit="10" stroke="rgb(40,41,98)" stroke-opacity="1" stroke-width="2.359" d=" M-17.27899932861328,-43.678001403808594 C-17.27899932861328,-43.678001403808594 17.27899932861328,43.678001403808594 17.27899932861328,43.678001403808594"></path></g></g><g transform="matrix(0.7827450037002563,0.6223425269126892,-0.6223425269126892,0.7827450037002563,234.18667602539062,276.28369140625)" opacity="1" style="display: block;"><g opacity="1" transform="matrix(1,0,0,1,35.09199905395508,28.097999572753906)"><path fill="rgb(249,194,157)" fill-opacity="1" d=" M-31.927000045776367,12.300999641418457 C-34.84199905395508,4.9039998054504395 -33.53900146484375,-3.4839999675750732 -28.533000946044922,-9.65999984741211 C-21.94300079345703,-17.788999557495117 -13.434000015258789,-27.847999572753906 -11.67300033569336,-27.847999572753906 C-3.7909998893737793,-27.847999572753906 -14.324999809265137,-16.207000732421875 -14.847999572753906,-13.378000259399414 C-15.607999801635742,-9.255999565124512 -11.765000343322754,-9.227999687194824 -1.5700000524520874,-13.85200023651123 C8.62600040435791,-18.47599983215332 16.687000274658203,-25.70800018310547 20.006999969482422,-25.47100067138672 C23.326000213623047,-25.233999252319336 23.959999084472656,-18.766000747680664 8.817999839782715,-9.939000129699707 C8.817999839782715,-9.939000129699707 22.45400047302246,-17.97599983215332 25.89900016784668,-20.631999969482422 C29.3439998626709,-23.28700065612793 31.322999954223633,-22.476999282836914 32.2140007019043,-21.70800018310547 C34.84199905395508,-19.440000534057617 26.256999969482422,-11.086999893188477 14.916999816894531,-5.3460001945495605 C14.916999816894531,-5.3460001945495605 25.097999572753906,-9.819000244140625 27.14299964904785,-11.08899974822998 C32.875,-14.64900016784668 34.70100021362305,-7.7820000648498535 25.53700065612793,-3.5309998989105225 C18.663000106811523,-0.34200000762939453 12.972000122070312,3.177999973297119 12.972000122070312,3.177999973297119 C12.972000122070312,3.177999973297119 23.670000076293945,-0.9700000286102295 25.915000915527344,-1.9240000247955322 C29.694000244140625,-3.5299999713897705 33.07500076293945,-1.1119999885559082 28.12299919128418,2.4769999980926514 C23.805999755859375,5.605000019073486 16.60700035095215,12.005000114440918 -11.14799976348877,24.523000717163086 C-18.520000457763672,27.847999572753906 -27.179000854492188,24.35099983215332 -30.143999099731445,16.82699966430664 C-30.143999099731445,16.82699966430664 -31.927000045776367,12.300999641418457 -31.927000045776367,12.300999641418457z"></path></g><g opacity="1" transform="matrix(1,0,0,1,17.524999618530273,40.167999267578125)"><path fill="rgb(249,194,157)" fill-opacity="1" d=" M13.649999618530273,0 C13.649999618530273,7.538000106811523 7.538000106811523,13.649999618530273 -0.0010000000474974513,13.649999618530273 C-7.539000034332275,13.649999618530273 -13.649999618530273,7.538000106811523 -13.649999618530273,0 C-13.649999618530273,-7.538000106811523 -7.539000034332275,-13.649999618530273 -0.0010000000474974513,-13.649999618530273 C7.538000106811523,-13.649999618530273 13.649999618530273,-7.538000106811523 13.649999618530273,0z"></path></g></g><g transform="matrix(1,0.00021110812667757273,-0.00021110812667757273,1,49.70494079589844,12.221969604492188)" opacity="1" style="display: block;"><g opacity="1" transform="matrix(1,0,0,1,85.48400115966797,86.36399841308594)"><path fill="rgb(249,194,157)" fill-opacity="1" d=" M-11.83899974822998,64.62100219726562 C-11.83899974822998,64.62100219726562 -19.04800033569336,62.874000549316406 -19.04800033569336,62.874000549316406 C-43.23899841308594,57.01300048828125 -58.236000061035156,32.42599868774414 -52.375999450683594,8.234999656677246 C-52.375999450683594,8.234999656677246 -42.79999923706055,-31.292999267578125 -42.79999923706055,-31.292999267578125 C-36.93899917602539,-55.48400115966797 -12.35200023651123,-70.48100280761719 11.84000015258789,-64.62000274658203 C11.84000015258789,-64.62000274658203 19.048999786376953,-62.874000549316406 19.048999786376953,-62.874000549316406 C43.2400016784668,-57.013999938964844 58.23699951171875,-32.42599868774414 52.37699890136719,-8.234999656677246 C52.37699890136719,-8.234999656677246 42.80099868774414,31.292999267578125 42.80099868774414,31.292999267578125 C36.941001892089844,55.48400115966797 12.35200023651123,70.48100280761719 -11.83899974822998,64.62100219726562z"></path></g><g opacity="1" transform="matrix(1,0,0,1,71.9749984741211,41.11600112915039)"><path fill="rgb(140,93,47)" fill-opacity="1" d=" M50.71900177001953,-5.085999965667725 C48.332000732421875,4.760000228881836 43.349998474121094,13.300000190734863 36.67300033569336,19.976999282836914 C23.930999755859375,32.72700119018555 5.01800012588501,38.70899963378906 -13.821999549865723,34.145999908447266 C-32.417999267578125,29.64299964904785 -46.375999450683594,15.946999549865723 -52.016998291015625,-0.9100000262260437 C-37.95800018310547,-25.365999221801758 -8.989999771118164,-38.709999084472656 19.808000564575195,-31.732999801635742 C29.826000213623047,-29.30299949645996 38.733001708984375,-24.68199920654297 46.15700149536133,-18.5 C48.229000091552734,-16.770999908447266 50.183998107910156,-14.920999526977539 52.016998291015625,-12.961000442504883 C51.78099822998047,-10.347999572753906 51.358001708984375,-7.7170000076293945 50.71900177001953,-5.085999965667725z"></path></g><g opacity="1" transform="matrix(1,0,0,1,126.22100067138672,55.36199951171875)"><path fill="rgb(140,93,47)" fill-opacity="1" d=" M13.548999786376953,32.612998962402344 C10.89900016784668,32.744998931884766 8.220999717712402,32.513999938964844 5.559000015258789,31.868000030517578 C-6.349999904632568,28.98200035095215 -14.85200023651123,18.658000946044922 -17.573999404907227,5.730999946594238 C-18.891000747680664,-0.5389999747276306 -18.84600067138672,-7.441999912261963 -17.163000106811523,-14.392999649047852 C-15.446999549865723,-21.47599983215332 -12.248000144958496,-27.7189998626709 -8.09000015258789,-32.744998931884766 C-6.01800012588501,-31.016000747680664 -4.061999797821045,-29.166000366210938 -2.2300000190734863,-27.20599937438965 C12.23799991607666,-11.736000061035156 18.891000747680664,10.487000465393066 13.548999786376953,32.612998962402344z"></path></g><g opacity="1" transform="matrix(1,0,0,1,131.5279998779297,107.8550033569336)"><path fill="rgb(204,142,109)" fill-opacity="1" d=" M1.4579999446868896,4.179999828338623 C1.4579999446868896,4.179999828338623 -3.2090001106262207,3.049999952316284 -3.2090001106262207,3.049999952316284 C-5.140999794006348,2.5820000171661377 -6.328000068664551,0.6349999904632568 -5.860000133514404,-1.2979999780654907 C-5.860000133514404,-1.2979999780654907 -5.803999900817871,-1.527999997138977 -5.803999900817871,-1.527999997138977 C-5.335999965667725,-3.4609999656677246 -3.390000104904175,-4.6479997634887695 -1.4570000171661377,-4.179999828338623 C-1.4570000171661377,-4.179999828338623 3.2090001106262207,-3.0490000247955322 3.2090001106262207,-3.0490000247955322 C5.142000198364258,-2.5810000896453857 6.328999996185303,-0.6349999904632568 5.861000061035156,1.2979999780654907 C5.861000061035156,1.2979999780654907 5.804999828338623,1.5290000438690186 5.804999828338623,1.5290000438690186 C5.336999893188477,3.4609999656677246 3.3910000324249268,4.6479997634887695 1.4579999446868896,4.179999828338623z"></path></g><g opacity="1" transform="matrix(1,0,0,1,53.38999938964844,79.36799621582031)"><path fill="rgb(140,93,47)" fill-opacity="1" d=" M-7.618000030517578,64.83899688720703 C-7.618000030517578,64.83899688720703 -7.618000030517578,64.83899688720703 -7.618000030517578,64.83899688720703 C-35.71799850463867,58.03099822998047 -53.13999938964844,29.469999313354492 -46.33300018310547,1.3700000047683716 C-46.33300018310547,1.3700000047683716 -40.237998962402344,-23.788999557495117 -40.237998962402344,-23.788999557495117 C-33.43000030517578,-51.88999938964844 -4.868000030517578,-69.31099700927734 23.23200035095215,-62.50299835205078 C41.69499969482422,-58.03099822998047 53.13999938964844,-39.26499938964844 48.667999267578125,-20.80299949645996 C48.667999267578125,-20.80299949645996 34.082000732421875,39.40399932861328 34.082000732421875,39.40399932861328 C29.610000610351562,57.86600112915039 10.843999862670898,69.31099700927734 -7.618000030517578,64.83899688720703z"></path></g><g opacity="1" transform="matrix(1,0,0,1,107.4219970703125,75.24600219726562)"><path fill="rgb(140,93,47)" fill-opacity="1" d=" M-3.9769999980926514,40.47700119018555 C-9.913000106811523,28.197999954223633 -20.589000701904297,11.734000205993652 -17.12700080871582,-2.555999994277954 C-14.062999725341797,-15.206999778747559 -7.261000156402588,-25.972000122070312 1.8200000524520874,-33.965999603271484 C9.217000007629395,-40.47700119018555 20.589000701904297,-33.7239990234375 18.22800064086914,-24.1560001373291 C11.979000091552734,-17.37700080871582 7.447999954223633,-8.060999870300293 4.861000061035156,2.618000030517578 C4.861000061035156,2.618000030517578 -2.994999885559082,35.04800033569336 -2.994999885559082,35.04800033569336 C-3.433000087738037,36.85900115966797 -3.756999969482422,38.66999816894531 -3.9769999980926514,40.47700119018555z"></path></g><g opacity="1" transform="matrix(1,0,0,1,118.76699829101562,121.00299835205078)"><path fill="rgb(255,255,255)" fill-opacity="1" d=" M6.940999984741211,-5.283999919891357 C6.940999984741211,-5.283999919891357 3.6544370651245117,4.945657730102539 1.4313558340072632,8.312252044677734 C-3.988788366317749,4.588143825531006 -6.892795085906982,-2.0682730674743652 -5.427000045776367,-8.64799976348877 C-5.427000045776367,-8.64799976348877 6.940999984741211,-5.283999919891357 6.940999984741211,-5.283999919891357z"></path></g><g opacity="1" transform="matrix(1,0,0,1,80.02100372314453,105.56199645996094)"><path fill="rgb(249,194,157)" fill-opacity="1" d=" M4.756999969482422,-16.2810001373291 C8.031000137329102,-15.48799991607666 10.838000297546387,-13.774999618530273 12.98799991607666,-11.491999626159668 C14.303000450134277,-8.093000411987305 15.866999626159668,-4.74399995803833 17.483999252319336,-1.5119999647140503 C17.645999908447266,0.2709999978542328 17.538000106811523,2.1070001125335693 17.093000411987305,3.943000078201294 C14.914999961853027,12.934000015258789 5.860000133514404,18.458999633789062 -3.13100004196167,16.2810001373291 C-12.123000144958496,14.10200023651123 -17.645999908447266,5.046000003814697 -15.467000007629395,-3.944999933242798 C-13.288999557495117,-12.935999870300293 -4.234000205993652,-18.458999633789062 4.756999969482422,-16.2810001373291z"></path></g><g opacity="1" transform="matrix(1,0,0,1,115.7979965209961,34.59000015258789)"><path fill="rgb(140,93,47)" fill-opacity="1" d=" M9.49899959564209,16.66900062561035 C12.647000312805176,14.529999732971191 37.356998443603516,27.67099952697754 37.356998443603516,27.67099952697754 C40.387001037597656,4.659999847412109 11.256999969482422,-11.00100040435791 11.256999969482422,-11.00100040435791 C11.256999969482422,-11.00100040435791 -22.589000701904297,-27.670000076293945 -28.31399917602539,-24.638999938964844 C-40.38800048828125,-18.246999740600586 -15.87600040435791,-1.1640000343322754 -15.87600040435791,-1.1640000343322754 C-15.87600040435791,-1.1640000343322754 9.49899959564209,16.66900062561035 9.49899959564209,16.66900062561035z"></path></g><g opacity="1" transform="matrix(1,0,0,1,134.16400146484375,72.13200378417969)"><path fill="rgb(140,93,47)" fill-opacity="1" d=" M5.1529998779296875,-19.948999404907227 C5.1529998779296875,-19.948999404907227 -16.277999877929688,-13.074999809265137 -16.277999877929688,-13.074999809265137 C-16.277999877929688,-13.074999809265137 -0.9829999804496765,2.76200008392334 -0.9829999804496765,2.76200008392334 C-0.9829999804496765,2.76200008392334 -20.804000854492188,1.4290000200271606 -20.804000854492188,1.4290000200271606 C-9.291999816894531,19.948999404907227 11.253000259399414,15.432000160217285 11.253000259399414,15.432000160217285 C20.804000854492188,-11.857000350952148 5.1529998779296875,-19.948999404907227 5.1529998779296875,-19.948999404907227z"></path></g><g opacity="1" transform="matrix(1,0,0,1,110.37000274658203,12.494999885559082)"><path fill="rgb(140,93,47)" fill-opacity="1" d=" M18.393999099731445,0.0020000000949949026 C18.393999099731445,0.0020000000949949026 -4.708000183105469,-12.246000289916992 -18.393999099731445,-0.8309999704360962 C-18.393999099731445,-0.8309999704360962 -0.8999999761581421,12.244999885559082 -0.8999999761581421,12.244999885559082 C-0.8999999761581421,12.244999885559082 18.393999099731445,0.0020000000949949026 18.393999099731445,0.0020000000949949026z"></path></g></g><g transform="matrix(0.9658711552619934,0.25902295112609863,-0.25902295112609863,0.9658711552619934,167.54991149902344,102.46261596679688)" opacity="1" style="display: block;"><g opacity="1" transform="matrix(1,0,0,1,6.493000030517578,6.49399995803833)"><path fill="rgb(34,30,31)" fill-opacity="1" d=" M5.506999969482422,1.3339999914169312 C4.769999980926514,4.375 1.7070000171661377,6.24399995803833 -1.3350000381469727,5.50600004196167 C-4.375999927520752,4.769999980926514 -6.24399995803833,1.7070000171661377 -5.507999897003174,-1.3339999914169312 C-4.770999908447266,-4.375 -1.7070000171661377,-6.24399995803833 1.3350000381469727,-5.50600004196167 C4.375999927520752,-4.769999980926514 6.24399995803833,-1.7070000171661377 5.506999969482422,1.3339999914169312z"></path></g></g></g></svg>