<svg xmlns="http://www.w3.org/2000/svg" viewBox="0 0 450 350" width="450" height="350" preserveAspectRatio="xMidYMid meet" style="width: 100%; height: 100%; transform: translate3d(0px, 0px, 0px);"><defs><clipPath id="__lottie_element_162"><rect width="450" height="350" x="0" y="0"></rect></clipPath></defs><g clip-path="url(#__lottie_element_162)"><g transform="matrix(1,0,0,1,52.20000076293945,201.43724060058594)" opacity="1" style="display: block;"><g opacity="1" transform="matrix(1,0,0,1,11.08899974822998,13.310999870300293)"><path fill="rgb(54,197,237)" fill-opacity="1" d=" M9.09000015258789,13.060999870300293 C9.09000015258789,13.060999870300293 -9.09000015258789,13.060999870300293 -9.09000015258789,13.060999870300293 C-10.055000305175781,13.060999870300293 -10.83899974822998,12.277999877929688 -10.83899974822998,11.312999725341797 C-10.83899974822998,11.312999725341797 -10.83899974822998,-11.314000129699707 -10.83899974822998,-11.314000129699707 C-10.83899974822998,-12.279000282287598 -10.055000305175781,-13.060999870300293 -9.09000015258789,-13.060999870300293 C-9.09000015258789,-13.060999870300293 9.09000015258789,-13.060999870300293 9.09000015258789,-13.060999870300293 C10.055000305175781,-13.060999870300293 10.83899974822998,-12.279000282287598 10.83899974822998,-11.314000129699707 C10.83899974822998,-11.314000129699707 10.83899974822998,11.312999725341797 10.83899974822998,11.312999725341797 C10.83899974822998,12.277999877929688 10.055000305175781,13.060999870300293 9.09000015258789,13.060999870300293z"></path></g></g><g transform="matrix(1,0,0,1,93.79999542236328,131.60690307617188)" opacity="1" style="display: block;"><g opacity="1" transform="matrix(1,0,0,1,14.414999961853027,17.31999969482422)"><path fill="rgb(54,197,237)" fill-opacity="1" d=" M11.880999565124512,17.06999969482422 C11.880999565124512,17.06999969482422 -11.880999565124512,17.06999969482422 -11.880999565124512,17.06999969482422 C-13.142000198364258,17.06999969482422 -14.164999961853027,16.04800033569336 -14.164999961853027,14.78600025177002 C-14.164999961853027,14.78600025177002 -14.164999961853027,-14.78600025177002 -14.164999961853027,-14.78600025177002 C-14.164999961853027,-16.047000885009766 -13.142000198364258,-17.06999969482422 -11.880999565124512,-17.06999969482422 C-11.880999565124512,-17.06999969482422 11.880999565124512,-17.06999969482422 11.880999565124512,-17.06999969482422 C13.142000198364258,-17.06999969482422 14.164999961853027,-16.047000885009766 14.164999961853027,-14.78600025177002 C14.164999961853027,-14.78600025177002 14.164999961853027,14.78600025177002 14.164999961853027,14.78600025177002 C14.164999961853027,16.04800033569336 13.142000198364258,17.06999969482422 11.880999565124512,17.06999969482422z"></path></g></g><g transform="matrix(1,0,0,1,40.604000091552734,90.45864868164062)" opacity="0.9999979897150815" style="display: block;"><g opacity="1" transform="matrix(1,0,0,1,22.868000030517578,27.507999420166016)"><path fill="rgb(54,197,237)" fill-opacity="1" d=" M18.97100067138672,27.257999420166016 C18.97100067138672,27.257999420166016 -18.97100067138672,27.257999420166016 -18.97100067138672,27.257999420166016 C-20.985000610351562,27.257999420166016 -22.618000030517578,25.625 -22.618000030517578,23.611000061035156 C-22.618000030517578,23.611000061035156 -22.618000030517578,-23.610000610351562 -22.618000030517578,-23.610000610351562 C-22.618000030517578,-25.625 -20.985000610351562,-27.257999420166016 -18.97100067138672,-27.257999420166016 C-18.97100067138672,-27.257999420166016 18.97100067138672,-27.257999420166016 18.97100067138672,-27.257999420166016 C20.986000061035156,-27.257999420166016 22.618000030517578,-25.625 22.618000030517578,-23.610000610351562 C22.618000030517578,-23.610000610351562 22.618000030517578,23.611000061035156 22.618000030517578,23.611000061035156 C22.618000030517578,25.625 20.986000061035156,27.257999420166016 18.97100067138672,27.257999420166016z"></path></g></g><g transform="matrix(1,0,0,1,374.6210021972656,94.19432067871094)" opacity="0.9999979897150815" style="display: block;"><g opacity="1" transform="matrix(1,0,0,1,22.29400062561035,26.81599998474121)"><path fill="rgb(54,197,237)" fill-opacity="1" d=" M18.489999771118164,26.56599998474121 C18.489999771118164,26.56599998474121 -18.48900032043457,26.56599998474121 -18.48900032043457,26.56599998474121 C-20.45199966430664,26.56599998474121 -22.04400062561035,24.974000930786133 -22.04400062561035,23.011999130249023 C-22.04400062561035,23.011999130249023 -22.04400062561035,-23.011999130249023 -22.04400062561035,-23.011999130249023 C-22.04400062561035,-24.975000381469727 -20.45199966430664,-26.56599998474121 -18.48900032043457,-26.56599998474121 C-18.48900032043457,-26.56599998474121 18.489999771118164,-26.56599998474121 18.489999771118164,-26.56599998474121 C20.452999114990234,-26.56599998474121 22.04400062561035,-24.975000381469727 22.04400062561035,-23.011999130249023 C22.04400062561035,-23.011999130249023 22.04400062561035,23.011999130249023 22.04400062561035,23.011999130249023 C22.04400062561035,24.974000930786133 20.452999114990234,26.56599998474121 18.489999771118164,26.56599998474121z"></path></g></g><g transform="matrix(1,0,0,1,313.86199951171875,82.04600524902344)" opacity="1" style="display: block;"><g opacity="1" transform="matrix(1,0,0,1,44.44499969482422,53.5099983215332)"><path fill="rgb(54,197,237)" fill-opacity="1" d=" M36.56800079345703,53.2599983215332 C36.56800079345703,53.2599983215332 -36.56800079345703,53.2599983215332 -36.56800079345703,53.2599983215332 C-40.779998779296875,53.2599983215332 -44.19499969482422,49.845001220703125 -44.19499969482422,45.632999420166016 C-44.19499969482422,45.632999420166016 -44.19499969482422,-45.632999420166016 -44.19499969482422,-45.632999420166016 C-44.19499969482422,-49.845001220703125 -40.779998779296875,-53.2599983215332 -36.56800079345703,-53.2599983215332 C-36.56800079345703,-53.2599983215332 36.56800079345703,-53.2599983215332 36.56800079345703,-53.2599983215332 C40.78099822998047,-53.2599983215332 44.19499969482422,-49.845001220703125 44.19499969482422,-45.632999420166016 C44.19499969482422,-45.632999420166016 44.19499969482422,45.632999420166016 44.19499969482422,45.632999420166016 C44.19499969482422,49.845001220703125 40.78099822998047,53.2599983215332 36.56800079345703,53.2599983215332z"></path></g></g><g transform="matrix(1,0,0,1,308.2349853515625,87.58600616455078)" opacity="1" style="display: block;"><g opacity="1" transform="matrix(1,0,0,1,44.41699981689453,53.55400085449219)"><path stroke-linecap="round" stroke-linejoin="miter" fill-opacity="0" stroke-miterlimit="10" stroke="rgb(40,41,98)" stroke-opacity="1" stroke-width="2.351" d=" M-38.540000915527344,-47.67599868774414 C-38.540000915527344,-47.67599868774414 -38.540000915527344,39.3390007019043 -38.540000915527344,39.3390007019043 C-38.540000915527344,45.05400085449219 -34.80799865722656,47.67599868774414 -30.20400047302246,47.67599868774414 C-30.20400047302246,47.67599868774414 38.540000915527344,47.67599868774414 38.540000915527344,47.67599868774414"></path></g></g><g transform="matrix(1,0,0,1,321.2820129394531,174.32699584960938)" opacity="1" style="display: block;"><g opacity="1" transform="matrix(1,0,0,1,32.85900115966797,2.3989999294281006)"><path fill="rgb(255,255,255)" fill-opacity="1" d=" M19.918514251708984,2.130171537399292 C19.918514251708984,2.130171537399292 -31.29400062561035,2.1489999294281006 -31.29400062561035,2.1489999294281006 C-32.02000045776367,2.1489999294281006 -32.60900115966797,1.559999942779541 -32.60900115966797,0.8330000042915344 C-32.60900115966797,0.8330000042915344 -32.60900115966797,-0.8320000171661377 -32.60900115966797,-0.8320000171661377 C-32.60900115966797,-1.559999942779541 -32.02000045776367,-2.1489999294281006 -31.29400062561035,-2.1489999294281006 C-31.29400062561035,-2.1489999294281006 19.918514251708984,-2.167828321456909 19.918514251708984,-2.167828321456909 C20.6455135345459,-2.167828321456909 21.2335147857666,-1.5788283348083496 21.2335147857666,-0.8508284091949463 C21.2335147857666,-0.8508284091949463 21.2335147857666,0.8141716122627258 21.2335147857666,0.8141716122627258 C21.2335147857666,1.5411715507507324 20.6455135345459,2.130171537399292 19.918514251708984,2.130171537399292z"></path></g></g><g transform="matrix(1,0,0,1,321.281005859375,165.03900146484375)" opacity="1" style="display: block;"><g opacity="1" transform="matrix(1,0,0,1,21.054000854492188,3.1510000228881836)"><path fill="rgb(255,255,255)" fill-opacity="1" d=" M11.938919067382812,2.7702901363372803 C11.938919067382812,2.7702901363372803 -19.58300018310547,2.9010000228881836 -19.58300018310547,2.9010000228881836 C-20.256999969482422,2.9010000228881836 -20.80299949645996,2.3540000915527344 -20.80299949645996,1.6799999475479126 C-20.80299949645996,1.6799999475479126 -20.80299949645996,-1.6799999475479126 -20.80299949645996,-1.6799999475479126 C-20.80299949645996,-2.3550000190734863 -20.256999969482422,-2.9010000228881836 -19.58300018310547,-2.9010000228881836 C-19.58300018310547,-2.9010000228881836 11.938919067382812,-3.031709671020508 11.938919067382812,-3.031709671020508 C12.613919258117676,-3.031709671020508 13.159918785095215,-2.4857096672058105 13.159918785095215,-1.8107097148895264 C13.159918785095215,-1.8107097148895264 13.159918785095215,1.5492902994155884 13.159918785095215,1.5492902994155884 C13.159918785095215,2.223290205001831 12.613919258117676,2.7702901363372803 11.938919067382812,2.7702901363372803z"></path></g></g><g transform="matrix(1,0,0,1,321.2820129394531,149.9770050048828)" opacity="1" style="display: block;"><g opacity="1" transform="matrix(1,0,0,1,32.85900115966797,2.3989999294281006)"><path fill="rgb(255,255,255)" fill-opacity="1" d=" M19.477842330932617,2.1170573234558105 C19.477842330932617,2.1170573234558105 -31.29400062561035,2.1489999294281006 -31.29400062561035,2.1489999294281006 C-32.02000045776367,2.1489999294281006 -32.60900115966797,1.559999942779541 -32.60900115966797,0.8330000042915344 C-32.60900115966797,0.8330000042915344 -32.60900115966797,-0.8320000171661377 -32.60900115966797,-0.8320000171661377 C-32.60900115966797,-1.559999942779541 -32.02000045776367,-2.1489999294281006 -31.29400062561035,-2.1489999294281006 C-31.29400062561035,-2.1489999294281006 19.477842330932617,-2.1809425354003906 19.477842330932617,-2.1809425354003906 C20.204843521118164,-2.1809425354003906 20.792842864990234,-1.591942548751831 20.792842864990234,-0.863942563533783 C20.792842864990234,-0.863942563533783 20.792842864990234,0.8010573983192444 20.792842864990234,0.8010573983192444 C20.792842864990234,1.5280574560165405 20.204843521118164,2.1170573234558105 19.477842330932617,2.1170573234558105z"></path></g></g><g transform="matrix(1,0,0,1,321.281005859375,140.68899536132812)" opacity="1" style="display: block;"><g opacity="1" transform="matrix(1,0,0,1,21.054000854492188,3.1510000228881836)"><path fill="rgb(255,255,255)" fill-opacity="1" d=" M30.647119522094727,2.9116220474243164 C30.647119522094727,2.9116220474243164 -19.58300018310547,2.9010000228881836 -19.58300018310547,2.9010000228881836 C-20.256999969482422,2.9010000228881836 -20.80299949645996,2.3540000915527344 -20.80299949645996,1.6799999475479126 C-20.80299949645996,1.6799999475479126 -20.80299949645996,-1.6799999475479126 -20.80299949645996,-1.6799999475479126 C-20.80299949645996,-2.3550000190734863 -20.256999969482422,-2.9010000228881836 -19.58300018310547,-2.9010000228881836 C-19.58300018310547,-2.9010000228881836 30.647119522094727,-2.890377998352051 30.647119522094727,-2.890377998352051 C31.322118759155273,-2.890377998352051 31.868120193481445,-2.3443779945373535 31.868120193481445,-1.6693780422210693 C31.868120193481445,-1.6693780422210693 31.868120193481445,1.6906219720840454 31.868120193481445,1.6906219720840454 C31.868120193481445,2.364621877670288 31.322118759155273,2.9116220474243164 30.647119522094727,2.9116220474243164z"></path></g></g><g transform="matrix(1,0,0,1,321.2820129394531,125.62700653076172)" opacity="1" style="display: block;"><g opacity="1" transform="matrix(1,0,0,1,32.85900115966797,2.3989999294281006)"><path fill="rgb(255,255,255)" fill-opacity="1" d=" M21.179414749145508,2.1547632217407227 C21.179414749145508,2.1547632217407227 -31.29400062561035,2.1489999294281006 -31.29400062561035,2.1489999294281006 C-32.02000045776367,2.1489999294281006 -32.60900115966797,1.559999942779541 -32.60900115966797,0.8330000042915344 C-32.60900115966797,0.8330000042915344 -32.60900115966797,-0.8320000171661377 -32.60900115966797,-0.8320000171661377 C-32.60900115966797,-1.559999942779541 -32.02000045776367,-2.1489999294281006 -31.29400062561035,-2.1489999294281006 C-31.29400062561035,-2.1489999294281006 21.179414749145508,-2.1432366371154785 21.179414749145508,-2.1432366371154785 C21.906415939331055,-2.1432366371154785 22.494415283203125,-1.554236650466919 22.494415283203125,-0.8262367248535156 C22.494415283203125,-0.8262367248535156 22.494415283203125,0.8387632966041565 22.494415283203125,0.8387632966041565 C22.494415283203125,1.5657633543014526 21.906415939331055,2.1547632217407227 21.179414749145508,2.1547632217407227z"></path></g></g><g transform="matrix(1,0,0,1,321.281005859375,116.33800506591797)" opacity="1" style="display: block;"><g opacity="1" transform="matrix(1,0,0,1,21.054000854492188,3.1510000228881836)"><path fill="rgb(255,255,255)" fill-opacity="1" d=" M9.274744033813477,2.9091105461120605 C9.274744033813477,2.9091105461120605 -19.58300018310547,2.9010000228881836 -19.58300018310547,2.9010000228881836 C-20.256999969482422,2.9010000228881836 -20.80299949645996,2.3540000915527344 -20.80299949645996,1.6799999475479126 C-20.80299949645996,1.6799999475479126 -20.80299949645996,-1.6799999475479126 -20.80299949645996,-1.6799999475479126 C-20.80299949645996,-2.3550000190734863 -20.256999969482422,-2.9010000228881836 -19.58300018310547,-2.9010000228881836 C-19.58300018310547,-2.9010000228881836 9.274744033813477,-2.8928892612457275 9.274744033813477,-2.8928892612457275 C9.94974422454834,-2.8928892612457275 10.495743751525879,-2.3468892574310303 10.495743751525879,-1.6718894243240356 C10.495743751525879,-1.6718894243240356 10.495743751525879,1.688110589981079 10.495743751525879,1.688110589981079 C10.495743751525879,2.3621106147766113 9.94974422454834,2.9091105461120605 9.274744033813477,2.9091105461120605z"></path></g></g><g transform="matrix(1,0,0,1,321.2820129394531,101.2760009765625)" opacity="1" style="display: block;"><g opacity="1" transform="matrix(1,0,0,1,32.85900115966797,2.3989999294281006)"><path fill="rgb(255,255,255)" fill-opacity="1" d=" M-4.793748378753662,2.163121223449707 C-4.793748378753662,2.163121223449707 -31.29400062561035,2.1489999294281006 -31.29400062561035,2.1489999294281006 C-32.02000045776367,2.1489999294281006 -32.60900115966797,1.559999942779541 -32.60900115966797,0.8330000042915344 C-32.60900115966797,0.8330000042915344 -32.60900115966797,-0.8320000171661377 -32.60900115966797,-0.8320000171661377 C-32.60900115966797,-1.559999942779541 -32.02000045776367,-2.1489999294281006 -31.29400062561035,-2.1489999294281006 C-31.29400062561035,-2.1489999294281006 -4.793748378753662,-2.134878635406494 -4.793748378753662,-2.134878635406494 C-4.066748142242432,-2.134878635406494 -3.478748083114624,-1.5458786487579346 -3.478748083114624,-0.8178787231445312 C-3.478748083114624,-0.8178787231445312 -3.478748083114624,0.8471212983131409 -3.478748083114624,0.8471212983131409 C-3.478748083114624,1.5741212368011475 -4.066748142242432,2.163121223449707 -4.793748378753662,2.163121223449707z"></path></g></g><g transform="matrix(1,0,0,1,321.281005859375,91.98800659179688)" opacity="1" style="display: block;"><g opacity="1" transform="matrix(1,0,0,1,21.054000854492188,3.1510000228881836)"><path fill="rgb(255,255,255)" fill-opacity="1" d=" M30.115001678466797,2.889735221862793 C30.115001678466797,2.889735221862793 -19.58300018310547,2.9010000228881836 -19.58300018310547,2.9010000228881836 C-20.256999969482422,2.9010000228881836 -20.80299949645996,2.3540000915527344 -20.80299949645996,1.6799999475479126 C-20.80299949645996,1.6799999475479126 -20.80299949645996,-1.6799999475479126 -20.80299949645996,-1.6799999475479126 C-20.80299949645996,-2.3550000190734863 -20.256999969482422,-2.9010000228881836 -19.58300018310547,-2.9010000228881836 C-19.58300018310547,-2.9010000228881836 30.115001678466797,-2.912264823913574 30.115001678466797,-2.912264823913574 C30.790000915527344,-2.912264823913574 31.336002349853516,-2.366264820098877 31.336002349853516,-1.6912647485733032 C31.336002349853516,-1.6912647485733032 31.336002349853516,1.6687352657318115 31.336002349853516,1.6687352657318115 C31.336002349853516,2.3427352905273438 30.790000915527344,2.889735221862793 30.115001678466797,2.889735221862793z"></path></g></g><g transform="matrix(1,0,0,1,125.35000610351562,277.02301025390625)" opacity="1" style="display: block;"><g opacity="1" transform="matrix(1,0,0,1,113.875,34.99399948120117)"><path fill="rgb(34,30,31)" fill-opacity="1" d=" M113.625,10.640999794006348 C113.625,10.640999794006348 -28.261999130249023,34.744998931884766 -28.261999130249023,34.744998931884766 C-28.261999130249023,34.744998931884766 -113.625,-10.640999794006348 -113.625,-10.640999794006348 C-113.625,-10.640999794006348 28.26099967956543,-34.744998931884766 28.26099967956543,-34.744998931884766 C28.26099967956543,-34.744998931884766 113.625,10.640999794006348 113.625,10.640999794006348z"></path></g></g><g transform="matrix(1,0,0,1,93.41600036621094,154.55099487304688)" opacity="1" style="display: block;"><g opacity="1" transform="matrix(1,0,0,1,105.46499633789062,80.48899841308594)"><path fill="rgb(39,170,225)" fill-opacity="1" d=" M20.676000595092773,-76.06199645996094 C20.676000595092773,-76.06199645996094 -24.54199981689453,-80.23899841308594 -24.54199981689453,-80.23899841308594 C-24.54199981689453,-80.23899841308594 -97.63899993896484,-70.63099670410156 -105.21499633789062,69.22699737548828 C-105.21499633789062,69.22699737548828 -16.555999755859375,80.23899841308594 -16.555999755859375,80.23899841308594 C-16.555999755859375,80.23899841308594 99.5009994506836,58.972999572753906 99.5009994506836,58.972999572753906 C99.5009994506836,58.972999572753906 105.21499633789062,-1.5160000324249268 83.64099884033203,-40.720001220703125 C70.01100158691406,-65.48899841308594 47.39699935913086,-73.25 20.676000595092773,-76.06199645996094z"></path></g><g opacity="1" transform="matrix(1,0,0,1,163.35499572753906,78.41600036621094)"><path stroke-linecap="round" stroke-linejoin="miter" fill-opacity="0" stroke-miterlimit="10" stroke="rgb(40,41,98)" stroke-opacity="1" stroke-width="2.351" d=" M4.744999885559082,-27.84000015258789 C4.744999885559082,-27.84000015258789 -4.744999885559082,27.84000015258789 -4.744999885559082,27.84000015258789"></path></g></g><g transform="matrix(0.9995052814483643,-0.031451959162950516,0.031451959162950516,0.9995052814483643,79.9026870727539,267.906005859375)" opacity="1" style="display: block;"><g opacity="1" transform="matrix(1,0,0,1,38.41999816894531,27.381999969482422)"><path fill="rgb(158,100,84)" fill-opacity="1" d=" M-27.20400047302246,12.902000427246094 C3.5260000228881836,23.61400032043457 28.878999710083008,27.131999969482422 28.878999710083008,27.131999969482422 C28.878999710083008,27.131999969482422 38.16999816894531,-4.7769999504089355 38.16999816894531,-4.7769999504089355 C38.16999816894531,-4.7769999504089355 -2.808000087738037,-20.437000274658203 -2.808000087738037,-20.437000274658203 C-20.32900047302246,-27.131999969482422 -38.16999816894531,-10.256999969482422 -31.746999740600586,7.366000175476074 C-30.725000381469727,10.168999671936035 -29.26099967956543,12.1850004196167 -27.20400047302246,12.902000427246094z"></path></g></g><g transform="matrix(0.9995052814483643,-0.031451959162950516,0.031451959162950516,0.9995052814483643,59.077552795410156,136.88616943359375)" opacity="1" style="display: block;"><g opacity="1" transform="matrix(1,0,0,1,77.44400024414062,58.11399841308594)"><path fill="rgb(39,170,225)" fill-opacity="1" d=" M46.70500183105469,-35.43199920654297 C46.70500183105469,-35.43199920654297 -18.881999969482422,-52.23699951171875 -45.224998474121094,28.812999725341797 C-45.73099899291992,30.368999481201172 -46.2239990234375,31.89699935913086 -46.70500183105469,33.395999908447266 C-46.70500183105469,33.395999908447266 -0.12999999523162842,52.236000061035156 -0.12999999523162842,52.236000061035156 C-0.12999999523162842,52.236000061035156 14.720999717712402,21.437999725341797 14.720999717712402,21.437999725341797 C14.720999717712402,21.437999725341797 46.70500183105469,-35.43199920654297 46.70500183105469,-35.43199920654297z"></path></g><g opacity="1" transform="matrix(1,0,0,1,40.685001373291016,134.1840057373047)"><path fill="rgb(158,100,84)" fill-opacity="1" d=" M-8.46500015258789,-47.25699996948242 C-8.46500015258789,-47.25699996948242 -39.56399917602539,28.39299964904785 -16.17799949645996,36.54499816894531 C14.552000045776367,47.257999420166016 21.160999298095703,8.013999938964844 21.160999298095703,8.013999938964844 C21.160999298095703,8.013999938964844 39.56399917602539,-30.658000946044922 39.56399917602539,-30.658000946044922 C39.56399917602539,-30.658000946044922 -8.46500015258789,-47.25699996948242 -8.46500015258789,-47.25699996948242z"></path></g><g opacity="1" transform="matrix(1,0,0,1,77.31500244140625,110.41000366210938)"><path stroke-linecap="round" stroke-linejoin="miter" fill-opacity="0" stroke-miterlimit="10" stroke="rgb(40,41,98)" stroke-opacity="1" stroke-width="2.351" d=" M-14.85099983215332,30.858999252319336 C-14.85099983215332,30.858999252319336 14.85099983215332,-30.858999252319336 14.85099983215332,-30.858999252319336"></path></g><g opacity="1" transform="matrix(1,0,0,1,65.01300048828125,91.85099792480469)"><path stroke-linecap="round" stroke-linejoin="miter" fill-opacity="0" stroke-miterlimit="10" stroke="rgb(40,41,98)" stroke-opacity="1" stroke-width="2.351" d=" M59.13600158691406,-69.16899871826172 C59.13600158691406,-69.16899871826172 -6.451000213623047,-85.9739990234375 -32.79399871826172,-4.923999786376953 C-59.13600158691406,76.1240005493164 -51.11199951171875,77.21900177001953 -20.107999801635742,85.9729995727539"></path></g></g><g transform="matrix(0.992099404335022,0.12545442581176758,-0.12545442581176758,0.992099404335022,201.24183654785156,282.6334533691406)" opacity="1" style="display: block;"><g opacity="1" transform="matrix(1,0,0,1,10.37399959564209,6.197999954223633)"><path fill="rgb(158,100,84)" fill-opacity="1" d=" M-10.12399959564209,0.06800000369548798 C-10.12399959564209,0.06800000369548798 2.7799999713897705,-5.947999954223633 6.452000141143799,-3.0829999446868896 C10.12399959564209,-0.2199999988079071 -0.30300000309944153,5.948999881744385 -0.30300000309944153,5.948999881744385 C-0.30300000309944153,5.948999881744385 -10.12399959564209,0.06800000369548798 -10.12399959564209,0.06800000369548798z"></path></g></g><g transform="matrix(0.9982421398162842,-0.05926726758480072,0.05926726758480072,0.9982421398162842,132.9742889404297,287.6855163574219)" opacity="1" style="display: block;"><g opacity="1" transform="matrix(1,0,0,1,17.00200080871582,17.00200080871582)"><path fill="rgb(158,100,84)" fill-opacity="1" d=" M-16.75200080871582,0 C-16.75200080871582,9.251999855041504 -9.251999855041504,16.75200080871582 0,16.75200080871582 C9.251999855041504,16.75200080871582 16.75200080871582,9.251999855041504 16.75200080871582,0 C16.75200080871582,-9.251999855041504 9.251999855041504,-16.75200080871582 0,-16.75200080871582 C-9.251999855041504,-16.75200080871582 -16.75200080871582,-9.251999855041504 -16.75200080871582,0z"></path></g><g opacity="1" transform="matrix(1,0,0,1,57.481998443603516,28.27400016784668)"><path fill="rgb(158,100,84)" fill-opacity="1" d=" M-44.76100158691406,4.927000045776367 C-44.76100158691406,4.927000045776367 -30.336000442504883,8.065999984741211 -25.006000518798828,8.692000389099121 C-13.12399959564209,10.086999893188477 -2.4000000953674316,3.933000087738037 -2.4000000953674316,3.933000087738037 C-2.4000000953674316,3.933000087738037 8.015000343322754,19.246000289916992 12.736000061035156,18.832000732421875 C17.45599937438965,18.417999267578125 14.78499984741211,15.085000038146973 13.859999656677246,12.878999710083008 C12.9350004196167,10.673999786376953 4.182000160217285,-4.033999919891357 4.182000160217285,-4.033999919891357 C4.182000160217285,-4.033999919891357 12.66100025177002,0.032999999821186066 14.437999725341797,2.1459999084472656 C16.214000701904297,4.258999824523926 23.47800064086914,23.808000564575195 32.750999450683594,22.864999771118164 C32.750999450683594,22.864999771118164 36.016998291015625,27.285999298095703 40.38800048828125,25.85300064086914 C44.76100158691406,24.420000076293945 32.12900161743164,-1.1069999933242798 31.427000045776367,-2.8450000286102295 C30.725000381469727,-4.583000183105469 15.121000289916992,-23.083999633789062 11.503000259399414,-25.014999389648438 C7.886000156402588,-26.94700050354004 -16.82200050354004,-25.02899932861328 -20.645000457763672,-25.55299949645996 C-24.319000244140625,-26.055999755859375 -35.25899887084961,-27.194000244140625 -35.25899887084961,-27.194000244140625 C-35.983001708984375,-27.285999298095703 -44.76100158691406,4.927000045776367 -44.76100158691406,4.927000045776367z"></path></g></g><g transform="matrix(1,0,0,1,210.71401977539062,214.218994140625)" opacity="1" style="display: block;"><g opacity="1" transform="matrix(1,0,0,1,71.19300079345703,66.39600372314453)"><path fill="rgb(130,126,126)" fill-opacity="1" d=" M70.94300079345703,42.042999267578125 C70.94300079345703,42.042999267578125 -70.94300079345703,66.14600372314453 -70.94300079345703,66.14600372314453 C-70.94300079345703,66.14600372314453 -70.94300079345703,-35.19300079345703 -70.94300079345703,-35.19300079345703 C-70.94300079345703,-39.44200134277344 -67.87799835205078,-43.073001861572266 -63.68899917602539,-43.78499984741211 C-63.68899917602539,-43.78499984741211 64.66300201416016,-65.58799743652344 64.66300201416016,-65.58799743652344 C67.9469985961914,-66.14600372314453 70.94300079345703,-63.617000579833984 70.94300079345703,-60.2859992980957 C70.94300079345703,-60.2859992980957 70.94300079345703,42.042999267578125 70.94300079345703,42.042999267578125z"></path></g></g><g transform="matrix(0.9999391436576843,0.011031192727386951,-0.011031192727386951,0.9999391436576843,184.23312377929688,122.38159942626953)" opacity="1" style="display: block;"><g opacity="1" transform="matrix(1,0,0,1,23.72800064086914,30.58300018310547)"><path fill="rgb(119,71,55)" fill-opacity="1" d=" M-17.30900001525879,-30.33300018310547 C-17.30900001525879,-30.33300018310547 -11.824999809265137,-4.284999847412109 -23.47800064086914,2.569999933242798 C-23.47800064086914,2.569999933242798 -7.711999893188477,30.332000732421875 18.679000854492188,12.85200023651123 C18.679000854492188,12.85200023651123 23.47800064086914,-13.880999565124512 23.47800064086914,-13.880999565124512 C23.47800064086914,-13.880999565124512 -17.30900001525879,-30.33300018310547 -17.30900001525879,-30.33300018310547z"></path></g></g><g transform="matrix(0.9983513355255127,-0.057398974895477295,0.057398974895477295,0.9983513355255127,147.6663360595703,17.725234985351562)" opacity="1" style="display: block;"><g opacity="1" transform="matrix(1,0,0,1,67.54299926757812,69.96399688720703)"><path fill="rgb(34,30,31)" fill-opacity="1" d=" M65,6.000999927520752 C65,6.000999927520752 64.99299621582031,6.065000057220459 64.99299621582031,6.065000057220459 C61.34199905395508,42.801998138427734 29.58300018310547,69.71399688720703 -5.935999870300293,66.19400024414062 C-41.45500183105469,62.67499923706055 -67.29299926757812,30.04199981689453 -63.641998291015625,-6.693999767303467 C-62.99100112915039,-13.170999526977539 -61.47600173950195,-19.3439998626709 -59.21200180053711,-25.094999313354492 C-48.659000396728516,-51.96099853515625 -21.957000732421875,-69.71399688720703 7.296000003814697,-66.81099700927734 C17.474000930786133,-65.80000305175781 26.85099983215332,-62.402000427246094 34.97800064086914,-57.202999114990234 C37.24700164794922,-55.75 39.41699981689453,-54.15599822998047 41.47999954223633,-52.43199920654297 C57.77799987792969,-38.827999114990234 67.29299926757812,-17.236000061035156 65,6.000999927520752z"></path></g><g opacity="1" transform="matrix(1,0,0,1,74.71900177001953,77.82099914550781)"><path fill="rgb(158,100,84)" fill-opacity="1" d=" M-7.5289998054504395,66.00700378417969 C-7.5289998054504395,66.00700378417969 -7.5289998054504395,66.00700378417969 -7.5289998054504395,66.00700378417969 C-34.11600112915039,63.36600112915039 -53.707000732421875,39.45399856567383 -51.066001892089844,12.866000175476074 C-51.066001892089844,12.866000175476074 -45.61199951171875,-42.06100082397461 -45.61199951171875,-42.06100082397461 C-42.97100067138672,-68.64800262451172 -19.05699920654297,-62.57699966430664 7.5289998054504395,-59.9370002746582 C34.11600112915039,-57.29600143432617 53.70800018310547,-33.382999420166016 51.06800079345703,-6.796000003814697 C51.06800079345703,-6.796000003814697 45.612998962402344,22.4689998626709 45.612998962402344,22.4689998626709 C42.97200012207031,49.05500030517578 19.05699920654297,68.64800262451172 -7.5289998054504395,66.00700378417969z"></path></g><g opacity="1" transform="matrix(1,0,0,1,23.371000289916992,93.56800079345703)"><path fill="rgb(158,100,84)" fill-opacity="1" d=" M16.538000106811523,1.6430000066757202 C15.630999565124512,10.776000022888184 7.491000175476074,17.44499969482422 -1.6419999599456787,16.538000106811523 C-10.774999618530273,15.630999565124512 -17.44499969482422,7.491000175476074 -16.538000106811523,-1.6430000066757202 C-15.630000114440918,-10.776000022888184 -7.489999771118164,-17.44499969482422 1.6430000066757202,-16.53700065612793 C10.777000427246094,-15.630000114440918 17.44499969482422,-7.489999771118164 16.538000106811523,1.6430000066757202z"></path></g><g opacity="1" transform="matrix(1,0,0,1,74.54499816894531,52.09199905395508)"><path fill="rgb(34,30,31)" fill-opacity="1" d=" M-38.86600112915039,8.414999961853027 C-36.31100082397461,-17.31100082397461 -22.107999801635742,-37.15800094604492 3.61899995803833,-34.60300064086914 C3.61899995803833,-34.60300064086914 6.745999813079834,-34.290000915527344 6.745999813079834,-34.290000915527344 C32.472999572753906,-31.736000061035156 51.43199920654297,-8.597000122070312 48.875999450683594,17.1299991607666 C48.875999450683594,17.1299991607666 45.604000091552734,50.071998596191406 45.604000091552734,50.071998596191406 C45.566001892089844,50.457000732421875 45.52299880981445,50.840999603271484 45.474998474121094,51.222999572753906 C53.04100036621094,42.21200180053711 58.06800079345703,30.906999588012695 59.31800079345703,18.315000534057617 C62.62200164794922,-14.960000038146973 38.327999114990234,-44.612998962402344 5.052000045776367,-47.917999267578125 C-28.222000122070312,-51.222999572753906 -57.875999450683594,-26.927000045776367 -61.180999755859375,6.3480000495910645 C-62.62200164794922,20.863000869750977 -49.875,35.57600021362305 -42.358001708984375,46.82600021362305 C-42.388999938964844,45.020999908447266 -42.31999969482422,43.19599914550781 -42.13800048828125,41.356998443603516 C-42.13800048828125,41.356998443603516 -38.86600112915039,8.414999961853027 -38.86600112915039,8.414999961853027z"></path></g><g opacity="1" transform="matrix(1,0,0,1,56.55400085449219,46.75199890136719)"><path fill="rgb(34,30,31)" fill-opacity="1" d=" M50.02399826049805,-12.22599983215332 C49.02899932861328,-2.2239999771118164 45.30500030517578,6.848999977111816 39.65999984741211,14.326000213623047 C28.888999938964844,28.60099983215332 11.128000259399414,37.07400131225586 -8.008999824523926,35.17399978637695 C-26.89900016784668,33.29999923706055 -42.492000579833984,21.756000518798828 -50.345001220703125,5.9670000076293945 C-39.88600158691406,-19.989999771118164 -13.255000114440918,-37.073001861572266 15.996999740600586,-34.16699981689453 C26.173999786376953,-33.15399932861328 35.560001373291016,-29.834999084472656 43.70199966430664,-24.77899932861328 C45.974998474121094,-23.364999771118164 48.150001525878906,-21.815000534057617 50.21799850463867,-20.141000747680664 C50.345001220703125,-17.541000366210938 50.29100036621094,-14.899999618530273 50.02399826049805,-12.22599983215332z"></path></g><g opacity="1" transform="matrix(1,0,0,1,113.78299713134766,53.486000061035156)"><path fill="rgb(34,30,31)" fill-opacity="1" d=" M17.55500030517578,30.30699920654297 C14.968999862670898,30.799999237060547 12.307000160217285,30.941999435424805 9.60200023651123,30.672000885009766 C-2.494999885559082,29.469999313354492 -12.263999938964844,20.490999221801758 -16.711999893188477,8.161999702453613 C-18.865999221801758,2.183000087738037 -19.768999099731445,-4.605000019073486 -19.06800079345703,-11.666000366210938 C-18.35300064086914,-18.861000061035156 -16.06599998474121,-25.433000564575195 -12.670000076293945,-30.941999435424805 C-10.397000312805176,-29.527999877929688 -8.220999717712402,-27.97800064086914 -6.1529998779296875,-26.30299949645996 C10.1850004196167,-13.088000297546387 19.768999099731445,7.834000110626221 17.55500030517578,30.30699920654297z"></path></g><g opacity="1" transform="matrix(1,0,0,1,85.37799835205078,103.25800323486328)"><path fill="rgb(119,71,55)" fill-opacity="1" d=" M2.005000114440918,3.9070000648498535 C2.005000114440918,3.9070000648498535 -2.734999895095825,3.436000108718872 -2.734999895095825,3.436000108718872 C-4.697999954223633,3.242000102996826 -6.13100004196167,1.4919999837875366 -5.935999870300293,-0.47200000286102295 C-5.935999870300293,-0.47200000286102295 -5.913000106811523,-0.7049999833106995 -5.913000106811523,-0.7049999833106995 C-5.7179999351501465,-2.6689999103546143 -3.9690001010894775,-4.1020002365112305 -2.00600004196167,-3.9070000648498535 C-2.00600004196167,-3.9070000648498535 2.7339999675750732,-3.436000108718872 2.7339999675750732,-3.436000108718872 C4.697999954223633,-3.242000102996826 6.13100004196167,-1.4919999837875366 5.935999870300293,0.47200000286102295 C5.935999870300293,0.47200000286102295 5.9120001792907715,0.7059999704360962 5.9120001792907715,0.7059999704360962 C5.7170000076293945,2.6689999103546143 3.9679999351501465,4.1020002365112305 2.005000114440918,3.9070000648498535z"></path></g><g opacity="1" transform="matrix(1,0,0,1,82.16699981689453,117.79499816894531)"><path fill="rgb(255,255,255)" fill-opacity="1" d=" M-15.543999671936035,-9.154000282287598 C-16.243999481201172,-0.6539999842643738 -10.133999824523926,6.973999977111816 -1.5880000591278076,8.064000129699707 C6.958000183105469,9.154000282287598 14.786999702453613,3.305999994277954 16.243999481201172,-5.0980000495910645 C16.243999481201172,-5.0980000495910645 -15.543999671936035,-9.154000282287598 -15.543999671936035,-9.154000282287598z"></path></g></g><g transform="matrix(0.9995549917221069,0.029831498861312866,-0.029830623418092728,0.9995256662368774,214.06532287597656,101.700927734375)" opacity="1" style="display: block;"><g opacity="1" transform="matrix(1,0,0,1,6.151000022888184,6.150000095367432)"><path fill="rgb(34,30,31)" fill-opacity="1" d=" M5.593999862670898,0.5550000071525574 C5.2870001792907715,3.6449999809265137 2.5339999198913574,5.900000095367432 -0.5550000071525574,5.5929999351501465 C-3.6449999809265137,5.285999774932861 -5.901000022888184,2.5339999198913574 -5.593999862670898,-0.5550000071525574 C-5.2870001792907715,-3.6449999809265137 -2.5329999923706055,-5.901000022888184 0.5559999942779541,-5.593999862670898 C3.6449999809265137,-5.2870001792907715 5.901000022888184,-2.5350000858306885 5.593999862670898,0.5550000071525574z"></path></g></g><g transform="matrix(0.9995549917221069,0.029831498861312866,-0.029830623418092728,0.9995256662368774,251.9342041015625,103.27530670166016)" opacity="1" style="display: block;"><g opacity="1" transform="matrix(1,0,0,1,6.151000022888184,6.151000022888184)"><path fill="rgb(34,30,31)" fill-opacity="1" d=" M5.593999862670898,0.5550000071525574 C5.2870001792907715,3.6449999809265137 2.5339999198913574,5.900000095367432 -0.5550000071525574,5.5929999351501465 C-3.6449999809265137,5.285999774932861 -5.901000022888184,2.5339999198913574 -5.593999862670898,-0.5550000071525574 C-5.2870001792907715,-3.6449999809265137 -2.5329999923706055,-5.901000022888184 0.5559999942779541,-5.593999862670898 C3.6449999809265137,-5.2870001792907715 5.901000022888184,-2.5350000858306885 5.593999862670898,0.5550000071525574z"></path></g></g></g></svg>